<?xml version="1.0" encoding="utf-8"?>
<!-- Generator: Adobe Illustrator 22.1.0, SVG Export Plug-In . SVG Version: 6.00 Build 0)  -->
<svg version="1.1" id="Layer_1" xmlns="http://www.w3.org/2000/svg" xmlns:xlink="http://www.w3.org/1999/xlink" x="0px" y="0px"
	 viewBox="0 0 80 80" style="enable-background:new 0 0 80 80;" xml:space="preserve">
<style type="text/css">
	.st0{fill:url(#SVGID_1_);}
	.st1{fill:url(#SVGID_2_);}
	.st2{fill:#F6F6F6;}
	.st3{fill:url(#SVGID_3_);}
	.st4{fill:url(#SVGID_4_);}
	.st5{fill:url(#SVGID_5_);}
	.st6{fill:#FFFFFF;}
	.st7{fill:none;stroke:url(#SVGID_6_);stroke-width:2;stroke-linecap:round;stroke-miterlimit:10;}
	.st8{fill:url(#SVGID_7_);}
	.st9{fill:#FFED81;}
	.st10{fill:#FF9481;}
	.st11{fill:#5FD881;}
	.st12{fill:#4C7BC3;}
	.st13{fill:#FFD881;}
</style>
<g>
	
		<radialGradient id="SVGID_1_" cx="40" cy="40.5" r="37" gradientTransform="matrix(1 0 0 -1 0 80)" gradientUnits="userSpaceOnUse">
		<stop  offset="2.847910e-03" style="stop-color:#516EFF"/>
		<stop  offset="0.1161" style="stop-color:#4A67E4"/>
		<stop  offset="0.2979" style="stop-color:#415CBE"/>
		<stop  offset="0.4794" style="stop-color:#3954A1"/>
		<stop  offset="0.6583" style="stop-color:#344F8C"/>
		<stop  offset="0.8333" style="stop-color:#314B7F"/>
		<stop  offset="1" style="stop-color:#304A7B"/>
	</radialGradient>
	<circle class="st0" cx="40" cy="39.5" r="37"/>
	<g>
		
			<radialGradient id="SVGID_2_" cx="40.7599" cy="48.026" r="25.9826" gradientTransform="matrix(1 0 0 -1 0 80)" gradientUnits="userSpaceOnUse">
			<stop  offset="0" style="stop-color:#E63F39"/>
			<stop  offset="0.1353" style="stop-color:#DE3E38"/>
			<stop  offset="0.3486" style="stop-color:#C73C34"/>
			<stop  offset="0.6133" style="stop-color:#A2372E"/>
			<stop  offset="0.9164" style="stop-color:#6F3226"/>
			<stop  offset="1" style="stop-color:#603023"/>
		</radialGradient>
		<path class="st1" d="M55.7,32.2c0,0,19.1,7.8,6.3,13.9c-2.7,1.3-15.4,10.5-33.7,5.1c-5.8-1.7-17.5-8.6-17.5-8.6l17.5-11.4
			L55.7,32.2z"/>
		<path class="st2" d="M28.8,33.2c0,0,0,2.8,3.7,3.1s8.4,1,8.9,0s1.1-3.1,1.1-3.1s0.6,2.6,1.7,2.9c1.1,0.3,7.3,0.5,8.7,0
			s2.7-4,2.7-4l-4.7-3.6l-10-1H37C37.1,27.6,29.5,29.9,28.8,33.2z"/>
		<path class="st2" d="M21.4,46.7c0,0,3,0.5,4.6,1s8.5,4.2,16.3,3.5c7.7-0.8,14.5-4.8,16.6-5.3c2.1-0.4,6.4,0,6.4,0l-9.6,9.4
			l-12.3,2.2l-9-1.2l-4.9-2.6L21.4,46.7z"/>
		
			<radialGradient id="SVGID_3_" cx="37.557" cy="51.4379" r="26.5987" gradientTransform="matrix(1 0 0 -1 0 80)" gradientUnits="userSpaceOnUse">
			<stop  offset="1.282355e-03" style="stop-color:#FF85A6"/>
			<stop  offset="0.3017" style="stop-color:#FC819E"/>
			<stop  offset="0.7741" style="stop-color:#F27587"/>
			<stop  offset="1" style="stop-color:#ED6E7A"/>
		</radialGradient>
		<path class="st3" d="M3.2,41.5c0,0,11.2-9.9,14.8-15.3c3.6-5.3,11.6-14.6,17.8-13c5,1.3,6.3,2.7,8.5,2c3.2-1,10.3-4.1,14.5,0.9
			c2.6,3.2,12.7,19.1,13.1,25.3c0.4,6.3-7.9-0.8-7.9-0.8S53.4,29,51.7,29.5s-13.5,1.1-17.6,0.1S22,48,3.2,41.5z"/>
		
			<radialGradient id="SVGID_4_" cx="37.5" cy="24.7641" r="26.2093" gradientTransform="matrix(1 0 0 -1 0 80)" gradientUnits="userSpaceOnUse">
			<stop  offset="1.282355e-03" style="stop-color:#FF85A6"/>
			<stop  offset="0.3017" style="stop-color:#FC819E"/>
			<stop  offset="0.7741" style="stop-color:#F27587"/>
			<stop  offset="1" style="stop-color:#ED6E7A"/>
		</radialGradient>
		<path class="st4" d="M3.2,41.5c0,0,11.5,25.6,28.8,27s21,0.6,27.2-3.5c9.2-6.1,12.6-22.7,12.6-22.7s-5-2.7-7.9,0.5
			c-1.6,1.7-11.4,10.3-21.7,10.7S17.3,43.2,11.8,42.8C6.4,42.3,3.2,41.5,3.2,41.5z"/>
	</g>
	<g>
		<g>
			<path d="M48.7,49c-0.6,0-1.1-0.3-1.4-0.9c-0.3-0.8,0-1.6,0.8-2l12.7-5.3l12.4-4.4c0.8-0.3,1.6,0.1,1.9,0.9s-0.1,1.6-0.9,1.9
				l-12.3,4.3l-12.6,5.3C49.1,49,48.9,49,48.7,49z"/>
			<g>
				
					<radialGradient id="SVGID_5_" cx="36.5" cy="35.5833" r="11.577" gradientTransform="matrix(1 0 0 -1 0 80)" gradientUnits="userSpaceOnUse">
					<stop  offset="1.282355e-03" style="stop-color:#E4DEE2"/>
					<stop  offset="0.2572" style="stop-color:#DCD9DD"/>
					<stop  offset="0.6596" style="stop-color:#C5CCCE"/>
					<stop  offset="1" style="stop-color:#ADBEBE"/>
				</radialGradient>
				<ellipse class="st5" cx="36.5" cy="44.5" rx="15.2" ry="6.2"/>
				<path d="M36.5,51.5c-9.2,0-16.2-3.1-16.2-7.2s7-7.2,16.2-7.2s16.2,3.1,16.2,7.2C52.7,48.5,45.7,51.5,36.5,51.5z M36.5,39.2
					c-8.3,0-14.2,2.7-14.2,5.2c0,2.4,5.8,5.2,14.2,5.2s14.2-2.7,14.2-5.2S44.8,39.2,36.5,39.2z"/>
			</g>
			<path d="M77.5,38.8l-13.8,5.6c-1.4,0.6-2.9-0.1-3.5-1.4l0,0c-0.6-1.4,0.1-2.9,1.4-3.5l15.1-6.3L77.5,38.8z"/>
		</g>
		<path class="st6" d="M29.2,40.8c-0.6,0.2,7.3,8,7.3,8l2.8-8.8C39.3,40,33.7,39.5,29.2,40.8z"/>
		<path class="st6" d="M41.8,40.8L38.6,49l1.7-0.2l4.8-7.3C45.2,41.5,43,40.8,41.8,40.8z"/>
	</g>
</g>
<g>
	<g>
		<radialGradient id="SVGID_6_" cx="24.2786" cy="25.6017" r="3.4777" gradientUnits="userSpaceOnUse">
			<stop  offset="0" style="stop-color:#30FCFF"/>
			<stop  offset="0.3532" style="stop-color:#30F9FF"/>
			<stop  offset="0.5778" style="stop-color:#30F1FF"/>
			<stop  offset="0.7665" style="stop-color:#30E2FF"/>
			<stop  offset="0.9344" style="stop-color:#30CDFF"/>
			<stop  offset="1" style="stop-color:#30C3FF"/>
		</radialGradient>
		<line class="st7" x1="21.9" y1="23" x2="26.7" y2="28.2"/>
		<radialGradient id="SVGID_7_" cx="15.1325" cy="15.0508" r="11.5238" gradientUnits="userSpaceOnUse">
			<stop  offset="0" style="stop-color:#30FCFF"/>
			<stop  offset="0.3532" style="stop-color:#30F9FF"/>
			<stop  offset="0.5778" style="stop-color:#30F1FF"/>
			<stop  offset="0.7665" style="stop-color:#30E2FF"/>
			<stop  offset="0.9344" style="stop-color:#30CDFF"/>
			<stop  offset="1" style="stop-color:#30C3FF"/>
		</radialGradient>
		<circle class="st8" cx="15.1" cy="15.1" r="11.5"/>
	</g>
	<path class="st9" d="M11.2,17.1c0,0-4.6-2-1.9-3.5c2.4-1.3,2.9,2.1,3.2-0.6s1.6-3.1,3.2-2.3s-0.3,4,1.5,4c1.8,0,3.6-1.5,4.2,0.6
		s-0.6,2.2-2.1,1.9s-2.5,0.4-1.4,1.9c1.1,1.5,1.3,4-1.3,3.3c-2.5-0.7-0.8-2.4-2.1-2.4c-1.5,0,0.5,3.2-2.3,1.8S10.4,17.5,11.2,17.1z"
		/>
	<circle class="st10" cx="19.8" cy="11.7" r="1.3"/>
	<circle class="st11" cx="9.5" cy="11.3" r="0.7"/>
	<circle class="st12" cx="8.2" cy="19" r="1"/>
	<circle class="st12" cx="20.9" cy="20.1" r="0.8"/>
	<circle class="st10" cx="13.7" cy="7.3" r="1.8"/>
	<circle class="st13" cx="13.7" cy="24.3" r="1"/>
</g>
</svg>
